<?xml version="1.0" standalone="yes"?>

<svg version="1.1" viewBox="0.0 0.0 599.0 599.0" fill="none" stroke="none" stroke-linecap="square" stroke-miterlimit="10" xmlns="http://www.w3.org/2000/svg" xmlns:xlink="http://www.w3.org/1999/xlink"><clipPath id="p.0"><path d="m0 0l599.0 0l0 599.0l-599.0 0l0 -599.0z" clip-rule="nonzero"></path></clipPath><g clip-path="url(#p.0)"><path fill="#000000" fill-opacity="0.0" d="m0 0l599.3228 0l0 599.3228l-599.3228 0z" fill-rule="nonzero"></path><path fill="#000000" d="m131.29921 278.55493l0 0c0 -30.995255 25.126617 -56.121857 56.121857 -56.121857l224.4807 0l0 0c14.88446 0 29.159271 5.9128113 39.684143 16.437714c10.524902 10.524887 16.437714 24.799713 16.437714 39.684143l0 239.53583c0 30.99524 -25.126617 56.121826 -56.121857 56.121826l-224.4807 0c-30.99524 0 -56.121857 -25.126587 -56.121857 -56.121826z" fill-rule="nonzero"></path><path fill="#000000" d="m189.47244 118.87401l0 0c0 -51.7843 49.333282 -93.76377 110.188965 -93.76377c60.855713 0 110.188995 41.97947 110.188995 93.76377l-46.881897 0l0 0c0 -25.89215 -28.343536 -46.88188 -63.3071 -46.88188c-34.96353 0 -63.307083 20.98973 -63.307083 46.88188z" fill-rule="nonzero"></path><path fill="#000000" d="m189.47244 115.44095l46.551178 0l0 114.99213l-46.551178 0z" fill-rule="nonzero"></path><path fill="#000000" d="m363.29922 115.44095l46.551178 0l0 114.99213l-46.551178 0z" fill-rule="nonzero"></path><path fill="#ffffff" d="m246.9685 347.67453l0 0c0 -29.10147 23.59143 -52.6929 52.6929 -52.6929l0 0c13.975037 0 27.377686 5.551544 37.25952 15.433411c9.881836 9.881836 15.433411 23.284485 15.433411 37.25949l0 0c0 29.101501 -23.59143 52.692932 -52.692932 52.692932l0 0c-29.10147 0 -52.6929 -23.59143 -52.6929 -52.692932z" fill-rule="nonzero"></path><path fill="#ffffff" d="m246.9685 461.28348l52.6929 -125.921265l52.692932 125.921265z" fill-rule="nonzero"></path><path fill="#000000" fill-opacity="0.0" d="m184.81233 464.56955l229.70079 0l0 91.62204l-229.70079 0z" fill-rule="nonzero"></path><path fill="#ffffff" d="m256.00647 528.7268l-0.28123474 0q-3.59375 5.21875 -10.75 5.21875q-6.71875 0 -10.453125 -4.59375q-3.734375 -4.59375 -3.734375 -13.0625q0 -8.4687195 3.75 -13.1562195q3.75 -4.6875 10.4375 -4.6875q6.96875 0 10.6875 5.0625l0.40623474 0l-0.21873474 -2.46875l-0.125 -2.40625l0 -13.9375l5.1874847 0l0 48.62497l-4.21875 0l-0.6875 -4.59375zm-10.374985 0.875q5.3125 0 7.703125 -2.890625q2.390625 -2.890625 2.390625 -9.328125l0 -1.09375q0 -7.2812195 -2.421875 -10.3905945q-2.421875 -3.109375 -7.734375 -3.109375q-4.5625 0 -6.984375 3.546875q-2.421875 3.546875 -2.421875 10.0155945q0 6.5625 2.40625 9.90625q2.40625 3.34375 7.0625 3.34375zm31.156235 -30.53122l0 22.21872q0 4.1875 1.90625 6.25q1.90625 2.0625 5.96875 2.0625q5.375 0 7.859375 -2.9375q2.484375 -2.9375 2.484375 -9.59375l0 -17.99997l5.1875 0l0 34.24997l-4.28125 0l-0.75 -4.59375l-0.28125 0q-1.59375 2.53125 -4.421875 3.875q-2.828125 1.34375 -6.453125 1.34375q-6.25 0 -9.359375 -2.96875q-3.109375 -2.96875 -3.109375 -9.5l0 -22.40622l5.25 0zm56.50003 24.90622q0 4.78125 -3.5625 7.375q-3.5625 2.59375 -10.0 2.59375q-6.8125 0 -10.6250305 -2.15625l0 -4.8125q2.46875 1.25 5.2969055 1.96875q2.828125 0.71875 5.453125 0.71875q4.0625 0 6.25 -1.296875q2.1875 -1.296875 2.1875 -3.953125q0 -2.0 -1.734375 -3.421875q-1.734375 -1.421875 -6.765625 -3.359375q-4.78125 -1.78125 -6.796875 -3.109375q-2.0156555 -1.328125 -3.0000305 -3.0155945q-0.984375 -1.6875 -0.984375 -4.03125q0 -4.1875 3.40625 -6.609375q3.4062805 -2.421875 9.3437805 -2.421875q5.53125 0 10.8125 2.25l-1.84375 4.21875q-5.15625 -2.125 -9.34375 -2.125q-3.6875 0 -5.5625 1.15625q-1.875 1.15625 -1.875 3.1875q0 1.375 0.703125 2.34375q0.703125 0.96875 2.265625 1.84375q1.5625 0.8749695 6.0 2.5312195q6.09375 2.21875 8.234375 4.46875q2.140625 2.25 2.140625 5.65625zm22.90625 9.96875q-7.59375 0 -11.984375 -4.625q-4.390625 -4.625 -4.390625 -12.84375q0 -8.2812195 4.078125 -13.1562195q4.078125 -4.875 10.953125 -4.875q6.4375 0 10.1875 4.234375q3.75 4.234375 3.75 11.1718445l0 3.28125l-23.59375 0q0.15625 6.03125 3.046875 9.15625q2.890625 3.125 8.140625 3.125q5.53125 0 10.9375 -2.3125l0 4.625q-2.75 1.1875 -5.203125 1.703125q-2.453125 0.515625 -5.921875 0.515625zm-1.40625 -31.15622q-4.125 0 -6.578125 2.6875q-2.453125 2.6875 -2.890625 7.4374695l17.90625 0q0 -4.9062195 -2.1875 -7.5155945q-2.1875 -2.609375 -6.25 -2.609375z" fill-rule="nonzero"></path></g></svg>

